<?xml version="1.0" encoding="UTF-8"?>
<svg id="Layer_1" xmlns="http://www.w3.org/2000/svg" version="1.1" viewBox="0 0 363.03 189.09">
  <!-- Generator: Adobe Illustrator 30.1.0, SVG Export Plug-In . SVG Version: 2.1.1 Build 136)  -->
  <defs>
    <style>
      .st0 {
        fill: #e22228;
      }
    </style>
  </defs>
  <path class="st0" d="M201.13,41.23c-5.28,0-7.19,5.37-7.19,20s2.16,19.92,7.19,19.92,7.19-4.59,7.19-19.92-1.91-20-7.19-20Z"/>
  <path class="st0" d="M0,0v131.55l363.03,57.54V0H0ZM70.56,92.23h-11.43v-4.5h-.17c-3.55,3.98-7.45,5.28-12.21,5.28-11.6,0-18.01-8.83-18.01-32.3,0-17.84,5.89-31.43,21.82-31.43,14.03,0,18.53,8.92,19.83,20.26l-13.25,1.21c-.87-5.63-2.68-9.09-6.58-9.09-4.59,0-7.01,4.5-7.01,19.05s1.38,20.35,7.36,20.35c4.33,0,6.67-3.38,6.67-8.23v-1.99h-6.75v-10.91h19.74v32.3ZM92.55,92.23h-14.55V30.06h14.55v62.17ZM135.41,92.23h-34.2V30.06h14.46v49.62h19.74v12.56ZM172.56,73.1c0,12.47-5.37,19.92-17.84,19.92-8.23,0-12.73-2.77-16.97-10.56l11.52-5.98c1.21,2.51,2.6,3.98,4.94,3.98,2.51,0,3.81-1.9,3.81-5.63V30.06h14.55v43.04ZM201.13,93.01c-15.85,0-21.99-11.95-21.99-31.78s5.02-31.95,21.99-31.95,22,12.82,22,31.95-6.15,31.78-22,31.78ZM261.66,42.62h-11.69v49.62h-14.46v-49.62h-11.69v-12.56h37.84v12.56ZM281.39,92.23h-14.55V30.06h14.55v62.17ZM331.88,92.23h-13.08l-15.76-34.38h-.17v34.38h-12.82V30.06h15.07l13.59,30.83h.17v-30.83h12.99v62.17Z"/>
</svg>